<svg width="1000" height="216" viewBox="0 0 1000 216" fill="none" xmlns="http://www.w3.org/2000/svg">
<path d="M302.397 170.805C293.615 170.805 285.917 169.265 279.302 166.186C272.687 162.993 267.555 158.545 263.906 152.842C260.256 147.14 258.431 140.468 258.431 132.827H276.394C276.508 137.16 277.534 141.152 279.473 144.802C281.526 148.337 284.434 151.188 288.198 153.355C292.076 155.408 296.809 156.435 302.397 156.435C307.187 156.435 311.293 155.636 314.714 154.04C318.25 152.443 320.93 150.276 322.755 147.539C324.58 144.688 325.492 141.437 325.492 137.788C325.492 133.568 324.523 130.089 322.584 127.352C320.645 124.615 318.022 122.391 314.714 120.68C311.521 118.856 307.757 117.259 303.423 115.89C299.204 114.522 294.756 113.039 290.08 111.442C280.614 108.363 273.543 104.371 268.867 99.4672C264.305 94.5631 262.024 88.1764 262.024 80.307C262.024 73.5781 263.62 67.7616 266.814 62.8575C270.007 57.8393 274.455 53.9617 280.157 51.2245C285.974 48.3733 292.817 46.9477 300.686 46.9477C308.442 46.9477 315.228 48.3733 321.044 51.2245C326.861 54.0757 331.423 58.0104 334.73 63.0286C338.037 68.0467 339.691 73.9202 339.691 80.6491H321.557C321.557 77.5698 320.759 74.5475 319.162 71.5822C317.566 68.617 315.171 66.2219 311.977 64.3972C308.784 62.4583 304.849 61.4889 300.173 61.4889C296.295 61.3749 292.817 62.0021 289.738 63.3707C286.658 64.7393 284.263 66.7352 282.553 69.3583C280.842 71.9814 279.986 75.1178 279.986 78.7673C279.986 82.4169 280.728 85.3822 282.21 87.6632C283.807 89.8301 286.088 91.7119 289.053 93.3086C292.019 94.9053 295.44 96.3879 299.318 97.7565C303.309 99.011 307.7 100.437 312.49 102.033C318.421 103.972 323.667 106.367 328.229 109.218C332.905 111.956 336.555 115.548 339.178 119.996C341.915 124.33 343.284 129.918 343.284 136.761C343.284 142.692 341.744 148.223 338.665 153.355C335.585 158.488 331.023 162.707 324.979 166.015C318.934 169.208 311.407 170.805 302.397 170.805Z" fill="white"/>
<path d="M378.139 168.752L345.806 82.531H363.769L388.232 152.329L412.867 82.531H430.487L398.326 168.752H378.139Z" fill="white"/>
<path d="M470.754 170.805C462.542 170.805 455.243 168.923 448.857 165.159C442.47 161.396 437.452 156.15 433.802 149.421C430.267 142.692 428.499 134.879 428.499 125.984C428.499 116.86 430.267 108.933 433.802 102.204C437.452 95.3615 442.47 90.0582 448.857 86.2946C455.243 82.4169 462.657 80.4781 471.096 80.4781C479.536 80.4781 486.778 82.3599 492.823 86.1235C498.867 89.8871 503.543 94.9053 506.851 101.178C510.158 107.337 511.812 114.18 511.812 121.707C511.812 122.847 511.755 124.102 511.641 125.47C511.641 126.725 511.584 128.151 511.47 129.747H440.987V117.601H494.704C494.362 110.416 491.967 104.828 487.519 100.836C483.071 96.7301 477.54 94.6772 470.925 94.6772C466.249 94.6772 461.972 95.7606 458.095 97.9276C454.217 99.9804 451.081 103.06 448.686 107.166C446.405 111.157 445.264 116.232 445.264 122.391V127.181C445.264 133.568 446.405 138.985 448.686 143.433C451.081 147.767 454.217 151.074 458.095 153.355C461.972 155.522 466.192 156.606 470.754 156.606C476.228 156.606 480.733 155.408 484.269 153.013C487.804 150.618 490.427 147.368 492.138 143.262H509.246C507.763 148.508 505.254 153.241 501.718 157.461C498.183 161.567 493.792 164.817 488.546 167.212C483.413 169.607 477.483 170.805 470.754 170.805Z" fill="white"/>
<path d="M521.286 168.752V45.5791H538.393V168.752H521.286Z" fill="white"/>
<path d="M590.989 168.752C585.514 168.752 580.781 167.897 576.79 166.186C572.798 164.475 569.719 161.624 567.552 157.632C565.385 153.641 564.301 148.223 564.301 141.38V97.0722H549.418V82.531H564.301L566.354 60.9757H581.409V82.531H605.872V97.0722H581.409V119.312V141.551C581.409 146.455 582.435 149.82 584.488 151.645C586.541 153.355 590.076 154.211 595.094 154.211H605.017V168.752H590.989Z" fill="white"/>
<path d="M653.616 170.805C645.405 170.805 638.106 168.923 631.719 165.159C625.332 161.396 620.314 156.15 616.665 149.421C613.129 142.692 611.361 134.879 611.361 125.984C611.361 116.86 613.129 108.933 616.665 102.204C620.314 95.3615 625.332 90.0582 631.719 86.2946C638.106 82.4169 645.519 80.4781 653.959 80.4781C662.398 80.4781 669.64 82.3599 675.685 86.1235C681.73 89.8871 686.406 94.9053 689.713 101.178C693.02 107.337 694.674 114.18 694.674 121.707C694.674 122.847 694.617 124.102 694.503 125.47C694.503 126.725 694.446 128.151 694.332 129.747H623.85V117.601H677.567C677.225 110.416 674.83 104.828 670.382 100.836C665.934 96.7301 660.402 94.6772 653.788 94.6772C649.112 94.6772 644.835 95.7606 640.957 97.9276C637.079 99.9804 633.943 103.06 631.548 107.166C629.267 111.157 628.126 116.232 628.126 122.391V127.181C628.126 133.568 629.267 138.985 631.548 143.433C633.943 147.767 637.079 151.074 640.957 153.355C644.835 155.522 649.055 156.606 653.616 156.606C659.091 156.606 663.596 155.408 667.131 153.013C670.667 150.618 673.29 147.368 675.001 143.262H692.108C690.625 148.508 688.116 153.241 684.581 157.461C681.045 161.567 676.654 164.817 671.408 167.212C666.276 169.607 660.345 170.805 653.616 170.805Z" fill="white"/>
<path d="M744.48 168.752V49.0005H788.788C797.114 49.0005 804.071 50.3691 809.659 53.1063C815.247 55.7294 819.41 59.379 822.147 64.055C824.999 68.617 826.424 73.8062 826.424 79.6227C826.424 85.6673 825.113 90.7425 822.49 94.8482C819.866 98.954 816.388 102.147 812.054 104.428C807.834 106.595 803.272 107.85 798.368 108.192L800.763 106.481C806.009 106.595 810.799 108.021 815.133 110.758C819.467 113.381 822.889 116.917 825.398 121.365C827.907 125.813 829.161 130.717 829.161 136.077C829.161 142.236 827.679 147.824 824.713 152.842C821.748 157.746 817.357 161.624 811.541 164.475C805.724 167.326 798.596 168.752 790.157 168.752H744.48ZM761.587 154.553H787.933C795.46 154.553 801.276 152.842 805.382 149.421C809.602 145.885 811.712 140.924 811.712 134.537C811.712 128.265 809.545 123.246 805.211 119.483C800.991 115.719 795.118 113.837 787.59 113.837H761.587V154.553ZM761.587 100.665H786.906C794.091 100.665 799.566 99.011 803.329 95.7036C807.093 92.2821 808.975 87.6061 808.975 81.6756C808.975 75.9731 807.093 71.4682 803.329 68.1608C799.566 64.7393 793.92 63.0286 786.393 63.0286H761.587V100.665Z" fill="white"/>
<path d="M838.67 168.752V82.5311H855.778V168.752H838.67ZM847.395 66.2791C844.088 66.2791 841.35 65.2526 839.183 63.1997C837.131 61.1469 836.104 58.5237 836.104 55.3304C836.104 52.251 837.131 49.742 839.183 47.8031C841.35 45.7502 844.088 44.7238 847.395 44.7238C850.588 44.7238 853.268 45.7502 855.435 47.8031C857.602 49.742 858.686 52.251 858.686 55.3304C858.686 58.5237 857.602 61.1469 855.435 63.1997C853.268 65.2526 850.588 66.2791 847.395 66.2791Z" fill="white"/>
<path d="M906.685 168.752C901.211 168.752 896.478 167.897 892.486 166.186C888.494 164.475 885.415 161.624 883.248 157.632C881.081 153.641 879.998 148.223 879.998 141.38V97.0722H865.114V82.531H879.998L882.051 60.9757H897.105V82.531H921.569V97.0722H897.105V141.551C897.105 146.455 898.132 149.82 900.184 151.645C902.237 153.355 905.773 154.211 910.791 154.211H920.713V168.752H906.685Z" fill="white"/>
<path d="M965.57 170.805C958.271 170.805 951.884 169.607 946.41 167.212C940.935 164.817 936.601 161.453 933.408 157.119C930.215 152.785 928.276 147.71 927.592 141.893H945.041C945.611 144.631 946.695 147.14 948.292 149.421C950.002 151.702 952.283 153.526 955.134 154.895C958.1 156.264 961.578 156.948 965.57 156.948C969.333 156.948 972.413 156.435 974.808 155.408C977.317 154.268 979.142 152.785 980.282 150.96C981.423 149.022 981.993 146.969 981.993 144.802C981.993 141.608 981.195 139.213 979.598 137.617C978.115 135.906 975.834 134.594 972.755 133.682C969.79 132.655 966.197 131.743 961.977 130.945C957.986 130.26 954.108 129.348 950.344 128.208C946.695 126.953 943.387 125.413 940.422 123.589C937.571 121.764 935.29 119.483 933.579 116.746C931.868 113.894 931.013 110.416 931.013 106.31C931.013 101.406 932.325 97.0152 934.948 93.1375C937.571 89.1458 941.277 86.0665 946.068 83.8995C950.972 81.6186 956.731 80.4781 963.346 80.4781C972.926 80.4781 980.624 82.759 986.441 87.321C992.257 91.883 995.679 98.3267 996.705 106.652H980.111C979.655 102.775 977.944 99.8094 974.979 97.7565C972.014 95.5896 968.079 94.5061 963.175 94.5061C958.271 94.5061 954.507 95.4755 951.884 97.4143C949.261 99.3532 947.949 101.919 947.949 105.113C947.949 107.166 948.691 108.99 950.173 110.587C951.656 112.184 953.823 113.552 956.674 114.693C959.639 115.719 963.232 116.689 967.452 117.601C973.496 118.742 978.914 120.167 983.704 121.878C988.494 123.589 992.314 126.098 995.166 129.405C998.017 132.713 999.442 137.446 999.442 143.604C999.557 148.965 998.188 153.698 995.337 157.803C992.6 161.909 988.665 165.102 983.533 167.383C978.514 169.664 972.527 170.805 965.57 170.805Z" fill="white"/>
<path d="M89.9238 140.894L92.3054 139.495C80.9132 146.613 67.1597 148.915 54.0704 145.894C40.9811 142.872 29.6282 134.774 22.5093 123.382C15.3904 111.99 13.0886 98.2365 16.1103 85.1472C19.1319 72.0579 27.2295 60.705 38.6217 53.5861L99.9889 15.2406C110.481 8.6599 123.021 6.15206 135.238 8.1914C147.454 10.2307 158.499 16.6759 166.285 26.3079C174.071 35.9399 178.057 48.0911 177.49 60.4634C176.923 72.8357 171.842 84.5714 163.208 93.451M21.5326 122.391C12.9991 131.32 8.02239 143.059 7.53886 155.4C7.05533 167.742 11.0983 179.834 18.9071 189.403C26.7159 198.972 37.7522 205.358 49.9399 207.359C62.1275 209.36 74.6263 206.838 85.0848 200.269L146.438 161.923C152.078 158.398 156.968 153.797 160.83 148.382C164.691 142.967 167.448 136.845 168.944 130.364C170.439 123.884 170.644 117.172 169.546 110.613C168.447 104.053 166.068 97.7741 162.543 92.1342C159.018 86.4943 154.417 81.604 149.002 77.7423C143.587 73.8807 137.464 71.1234 130.984 69.6279C124.503 68.1324 117.792 67.928 111.232 69.0263C104.673 70.1246 98.3938 72.5042 92.7539 76.0291L97.4183 73.4449" stroke="white" stroke-width="15"/>
</svg>
